<?xml version="1.0" encoding="utf-8" standalone="no"?>
<!DOCTYPE svg PUBLIC "-//W3C//DTD SVG 1.1//EN"
  "http://www.w3.org/Graphics/SVG/1.1/DTD/svg11.dtd">
<svg xmlns:xlink="http://www.w3.org/1999/xlink" width="413.329062pt" height="341.616219pt" viewBox="0 0 413.329062 341.616219" xmlns="http://www.w3.org/2000/svg" version="1.1">
 <metadata>
  <rdf:RDF xmlns:dc="http://purl.org/dc/elements/1.1/" xmlns:cc="http://creativecommons.org/ns#" xmlns:rdf="http://www.w3.org/1999/02/22-rdf-syntax-ns#">
   <cc:Work>
    <dc:type rdf:resource="http://purl.org/dc/dcmitype/StillImage"/>
    <dc:date>2024-12-23T19:59:28.737013</dc:date>
    <dc:format>image/svg+xml</dc:format>
    <dc:creator>
     <cc:Agent>
      <dc:title>Matplotlib v3.9.2, https://matplotlib.org/</dc:title>
     </cc:Agent>
    </dc:creator>
   </cc:Work>
  </rdf:RDF>
 </metadata>
 <defs>
  <style type="text/css">*{stroke-linejoin: round; stroke-linecap: butt}</style>
 </defs>
 <g id="figure_1">
  <g id="patch_1">
   <path d="M 0 341.616219 
L 413.329062 341.616219 
L 413.329062 0 
L 0 0 
z
" style="fill: #ffffff"/>
  </g>
  <g id="axes_1">
   <g id="patch_2">
    <path d="M 46.869531 289.949812 
L 403.989531 289.949812 
L 403.989531 23.837812 
L 46.869531 23.837812 
z
" style="fill: #ffffff"/>
   </g>
   <g id="PathCollection_1">
    <defs>
     <path id="m1c8ae0dda3" d="M -4.472136 4.472136 
L 4.472136 -4.472136 
M -4.472136 -4.472136 
L 4.472136 4.472136 
" style="stroke: #0000ff; stroke-width: 2.5"/>
    </defs>
    <g clip-path="url(#pc3e6861d7e)">
     <use xlink:href="#m1c8ae0dda3" x="54.467829" y="278.416714" style="fill: #0000ff; stroke: #0000ff; stroke-width: 2.5"/>
     <use xlink:href="#m1c8ae0dda3" x="92.459318" y="254.481947" style="fill: #0000ff; stroke: #0000ff; stroke-width: 2.5"/>
     <use xlink:href="#m1c8ae0dda3" x="130.450808" y="230.54718" style="fill: #0000ff; stroke: #0000ff; stroke-width: 2.5"/>
     <use xlink:href="#m1c8ae0dda3" x="168.442297" y="206.612413" style="fill: #0000ff; stroke: #0000ff; stroke-width: 2.5"/>
     <use xlink:href="#m1c8ae0dda3" x="206.433787" y="182.677646" style="fill: #0000ff; stroke: #0000ff; stroke-width: 2.5"/>
     <use xlink:href="#m1c8ae0dda3" x="244.425276" y="158.742879" style="fill: #0000ff; stroke: #0000ff; stroke-width: 2.5"/>
     <use xlink:href="#m1c8ae0dda3" x="282.416765" y="134.808112" style="fill: #0000ff; stroke: #0000ff; stroke-width: 2.5"/>
     <use xlink:href="#m1c8ae0dda3" x="320.408255" y="110.873345" style="fill: #0000ff; stroke: #0000ff; stroke-width: 2.5"/>
     <use xlink:href="#m1c8ae0dda3" x="358.399744" y="86.938578" style="fill: #0000ff; stroke: #0000ff; stroke-width: 2.5"/>
     <use xlink:href="#m1c8ae0dda3" x="396.391233" y="63.003811" style="fill: #0000ff; stroke: #0000ff; stroke-width: 2.5"/>
    </g>
   </g>
   <g id="matplotlib.axis_1">
    <g id="xtick_1">
     <g id="line2d_1">
      <defs>
       <path id="ma2123a620f" d="M 0 0 
L 0 3.5 
" style="stroke: #000000; stroke-width: 0.8"/>
      </defs>
      <g>
       <use xlink:href="#ma2123a620f" x="54.467829" y="289.949812" style="stroke: #000000; stroke-width: 0.8"/>
      </g>
     </g>
     <g id="text_1">
      <!-- $\frac{0}{18}$ -->
      <g transform="translate(46.817829 311.499812) scale(0.15 -0.15)">
       <defs>
        <path id="DejaVuSans-30" d="M 2034 4250 
Q 1547 4250 1301 3770 
Q 1056 3291 1056 2328 
Q 1056 1369 1301 889 
Q 1547 409 2034 409 
Q 2525 409 2770 889 
Q 3016 1369 3016 2328 
Q 3016 3291 2770 3770 
Q 2525 4250 2034 4250 
z
M 2034 4750 
Q 2819 4750 3233 4129 
Q 3647 3509 3647 2328 
Q 3647 1150 3233 529 
Q 2819 -91 2034 -91 
Q 1250 -91 836 529 
Q 422 1150 422 2328 
Q 422 3509 836 4129 
Q 1250 4750 2034 4750 
z
" transform="scale(0.015625)"/>
        <path id="DejaVuSans-31" d="M 794 531 
L 1825 531 
L 1825 4091 
L 703 3866 
L 703 4441 
L 1819 4666 
L 2450 4666 
L 2450 531 
L 3481 531 
L 3481 0 
L 794 0 
L 794 531 
z
" transform="scale(0.015625)"/>
        <path id="DejaVuSans-38" d="M 2034 2216 
Q 1584 2216 1326 1975 
Q 1069 1734 1069 1313 
Q 1069 891 1326 650 
Q 1584 409 2034 409 
Q 2484 409 2743 651 
Q 3003 894 3003 1313 
Q 3003 1734 2745 1975 
Q 2488 2216 2034 2216 
z
M 1403 2484 
Q 997 2584 770 2862 
Q 544 3141 544 3541 
Q 544 4100 942 4425 
Q 1341 4750 2034 4750 
Q 2731 4750 3128 4425 
Q 3525 4100 3525 3541 
Q 3525 3141 3298 2862 
Q 3072 2584 2669 2484 
Q 3125 2378 3379 2068 
Q 3634 1759 3634 1313 
Q 3634 634 3220 271 
Q 2806 -91 2034 -91 
Q 1263 -91 848 271 
Q 434 634 434 1313 
Q 434 1759 690 2068 
Q 947 2378 1403 2484 
z
M 1172 3481 
Q 1172 3119 1398 2916 
Q 1625 2713 2034 2713 
Q 2441 2713 2670 2916 
Q 2900 3119 2900 3481 
Q 2900 3844 2670 4047 
Q 2441 4250 2034 4250 
Q 1625 4250 1398 4047 
Q 1172 3844 1172 3481 
z
" transform="scale(0.015625)"/>
       </defs>
       <use xlink:href="#DejaVuSans-30" transform="translate(22 45.046875) scale(0.7)"/>
       <use xlink:href="#DejaVuSans-31" transform="translate(0 -39.151563) scale(0.7)"/>
       <use xlink:href="#DejaVuSans-38" transform="translate(44.536133 -39.151563) scale(0.7)"/>
       <path d="M 0 19.051563 
L 0 25.301563 
L 89.072266 25.301563 
L 89.072266 19.051563 
L 0 19.051563 
z
"/>
      </g>
     </g>
    </g>
    <g id="xtick_2">
     <g id="line2d_2">
      <g>
       <use xlink:href="#ma2123a620f" x="92.459318" y="289.949812" style="stroke: #000000; stroke-width: 0.8"/>
      </g>
     </g>
     <g id="text_2">
      <!-- $\frac{2}{18}$ -->
      <g transform="translate(84.809318 311.349812) scale(0.15 -0.15)">
       <defs>
        <path id="DejaVuSans-32" d="M 1228 531 
L 3431 531 
L 3431 0 
L 469 0 
L 469 531 
Q 828 903 1448 1529 
Q 2069 2156 2228 2338 
Q 2531 2678 2651 2914 
Q 2772 3150 2772 3378 
Q 2772 3750 2511 3984 
Q 2250 4219 1831 4219 
Q 1534 4219 1204 4116 
Q 875 4013 500 3803 
L 500 4441 
Q 881 4594 1212 4672 
Q 1544 4750 1819 4750 
Q 2544 4750 2975 4387 
Q 3406 4025 3406 3419 
Q 3406 3131 3298 2873 
Q 3191 2616 2906 2266 
Q 2828 2175 2409 1742 
Q 1991 1309 1228 531 
z
" transform="scale(0.015625)"/>
       </defs>
       <use xlink:href="#DejaVuSans-32" transform="translate(22 44.046875) scale(0.7)"/>
       <use xlink:href="#DejaVuSans-31" transform="translate(0 -39.15625) scale(0.7)"/>
       <use xlink:href="#DejaVuSans-38" transform="translate(44.536133 -39.15625) scale(0.7)"/>
       <path d="M 0 19.046875 
L 0 25.296875 
L 89.072266 25.296875 
L 89.072266 19.046875 
L 0 19.046875 
z
"/>
      </g>
     </g>
    </g>
    <g id="xtick_3">
     <g id="line2d_3">
      <g>
       <use xlink:href="#ma2123a620f" x="130.450808" y="289.949812" style="stroke: #000000; stroke-width: 0.8"/>
      </g>
     </g>
     <g id="text_3">
      <!-- $\frac{4}{18}$ -->
      <g transform="translate(122.800808 311.199812) scale(0.15 -0.15)">
       <defs>
        <path id="DejaVuSans-34" d="M 2419 4116 
L 825 1625 
L 2419 1625 
L 2419 4116 
z
M 2253 4666 
L 3047 4666 
L 3047 1625 
L 3713 1625 
L 3713 1100 
L 3047 1100 
L 3047 0 
L 2419 0 
L 2419 1100 
L 313 1100 
L 313 1709 
L 2253 4666 
z
" transform="scale(0.015625)"/>
       </defs>
       <use xlink:href="#DejaVuSans-34" transform="translate(22 43.965625) scale(0.7)"/>
       <use xlink:href="#DejaVuSans-31" transform="translate(0 -39.2375) scale(0.7)"/>
       <use xlink:href="#DejaVuSans-38" transform="translate(44.536133 -39.2375) scale(0.7)"/>
       <path d="M 0 18.965625 
L 0 25.215625 
L 89.072266 25.215625 
L 89.072266 18.965625 
L 0 18.965625 
z
"/>
      </g>
     </g>
    </g>
    <g id="xtick_4">
     <g id="line2d_4">
      <g>
       <use xlink:href="#ma2123a620f" x="168.442297" y="289.949812" style="stroke: #000000; stroke-width: 0.8"/>
      </g>
     </g>
     <g id="text_4">
      <!-- $\frac{6}{18}$ -->
      <g transform="translate(160.792297 311.499812) scale(0.15 -0.15)">
       <defs>
        <path id="DejaVuSans-36" d="M 2113 2584 
Q 1688 2584 1439 2293 
Q 1191 2003 1191 1497 
Q 1191 994 1439 701 
Q 1688 409 2113 409 
Q 2538 409 2786 701 
Q 3034 994 3034 1497 
Q 3034 2003 2786 2293 
Q 2538 2584 2113 2584 
z
M 3366 4563 
L 3366 3988 
Q 3128 4100 2886 4159 
Q 2644 4219 2406 4219 
Q 1781 4219 1451 3797 
Q 1122 3375 1075 2522 
Q 1259 2794 1537 2939 
Q 1816 3084 2150 3084 
Q 2853 3084 3261 2657 
Q 3669 2231 3669 1497 
Q 3669 778 3244 343 
Q 2819 -91 2113 -91 
Q 1303 -91 875 529 
Q 447 1150 447 2328 
Q 447 3434 972 4092 
Q 1497 4750 2381 4750 
Q 2619 4750 2861 4703 
Q 3103 4656 3366 4563 
z
" transform="scale(0.015625)"/>
       </defs>
       <use xlink:href="#DejaVuSans-36" transform="translate(22 45.046875) scale(0.7)"/>
       <use xlink:href="#DejaVuSans-31" transform="translate(0 -39.151563) scale(0.7)"/>
       <use xlink:href="#DejaVuSans-38" transform="translate(44.536133 -39.151563) scale(0.7)"/>
       <path d="M 0 19.051563 
L 0 25.301563 
L 89.072266 25.301563 
L 89.072266 19.051563 
L 0 19.051563 
z
"/>
      </g>
     </g>
    </g>
    <g id="xtick_5">
     <g id="line2d_5">
      <g>
       <use xlink:href="#ma2123a620f" x="206.433787" y="289.949812" style="stroke: #000000; stroke-width: 0.8"/>
      </g>
     </g>
     <g id="text_5">
      <!-- $\frac{8}{18}$ -->
      <g transform="translate(198.783787 311.499812) scale(0.15 -0.15)">
       <use xlink:href="#DejaVuSans-38" transform="translate(22 45.046875) scale(0.7)"/>
       <use xlink:href="#DejaVuSans-31" transform="translate(0 -39.151563) scale(0.7)"/>
       <use xlink:href="#DejaVuSans-38" transform="translate(44.536133 -39.151563) scale(0.7)"/>
       <path d="M 0 19.051563 
L 0 25.301563 
L 89.072266 25.301563 
L 89.072266 19.051563 
L 0 19.051563 
z
"/>
      </g>
     </g>
    </g>
    <g id="xtick_6">
     <g id="line2d_6">
      <g>
       <use xlink:href="#ma2123a620f" x="244.425276" y="289.949812" style="stroke: #000000; stroke-width: 0.8"/>
      </g>
     </g>
     <g id="text_6">
      <!-- $\frac{10}{18}$ -->
      <g transform="translate(236.775276 311.499812) scale(0.15 -0.15)">
       <use xlink:href="#DejaVuSans-31" transform="translate(0 45.046875) scale(0.7)"/>
       <use xlink:href="#DejaVuSans-30" transform="translate(44.536133 45.046875) scale(0.7)"/>
       <use xlink:href="#DejaVuSans-31" transform="translate(0 -39.151563) scale(0.7)"/>
       <use xlink:href="#DejaVuSans-38" transform="translate(44.536133 -39.151563) scale(0.7)"/>
       <path d="M 0 19.051563 
L 0 25.301563 
L 89.072266 25.301563 
L 89.072266 19.051563 
L 0 19.051563 
z
"/>
      </g>
     </g>
    </g>
    <g id="xtick_7">
     <g id="line2d_7">
      <g>
       <use xlink:href="#ma2123a620f" x="282.416765" y="289.949812" style="stroke: #000000; stroke-width: 0.8"/>
      </g>
     </g>
     <g id="text_7">
      <!-- $\frac{12}{18}$ -->
      <g transform="translate(274.766765 311.349812) scale(0.15 -0.15)">
       <use xlink:href="#DejaVuSans-31" transform="translate(0 44.046875) scale(0.7)"/>
       <use xlink:href="#DejaVuSans-32" transform="translate(44.536133 44.046875) scale(0.7)"/>
       <use xlink:href="#DejaVuSans-31" transform="translate(0 -39.15625) scale(0.7)"/>
       <use xlink:href="#DejaVuSans-38" transform="translate(44.536133 -39.15625) scale(0.7)"/>
       <path d="M 0 19.046875 
L 0 25.296875 
L 89.072266 25.296875 
L 89.072266 19.046875 
L 0 19.046875 
z
"/>
      </g>
     </g>
    </g>
    <g id="xtick_8">
     <g id="line2d_8">
      <g>
       <use xlink:href="#ma2123a620f" x="320.408255" y="289.949812" style="stroke: #000000; stroke-width: 0.8"/>
      </g>
     </g>
     <g id="text_8">
      <!-- $\frac{14}{18}$ -->
      <g transform="translate(312.758255 311.199812) scale(0.15 -0.15)">
       <use xlink:href="#DejaVuSans-31" transform="translate(0 43.965625) scale(0.7)"/>
       <use xlink:href="#DejaVuSans-34" transform="translate(44.536133 43.965625) scale(0.7)"/>
       <use xlink:href="#DejaVuSans-31" transform="translate(0 -39.2375) scale(0.7)"/>
       <use xlink:href="#DejaVuSans-38" transform="translate(44.536133 -39.2375) scale(0.7)"/>
       <path d="M 0 18.965625 
L 0 25.215625 
L 89.072266 25.215625 
L 89.072266 18.965625 
L 0 18.965625 
z
"/>
      </g>
     </g>
    </g>
    <g id="xtick_9">
     <g id="line2d_9">
      <g>
       <use xlink:href="#ma2123a620f" x="358.399744" y="289.949812" style="stroke: #000000; stroke-width: 0.8"/>
      </g>
     </g>
     <g id="text_9">
      <!-- $\frac{16}{18}$ -->
      <g transform="translate(350.749744 311.499812) scale(0.15 -0.15)">
       <use xlink:href="#DejaVuSans-31" transform="translate(0 45.046875) scale(0.7)"/>
       <use xlink:href="#DejaVuSans-36" transform="translate(44.536133 45.046875) scale(0.7)"/>
       <use xlink:href="#DejaVuSans-31" transform="translate(0 -39.151563) scale(0.7)"/>
       <use xlink:href="#DejaVuSans-38" transform="translate(44.536133 -39.151563) scale(0.7)"/>
       <path d="M 0 19.051563 
L 0 25.301563 
L 89.072266 25.301563 
L 89.072266 19.051563 
L 0 19.051563 
z
"/>
      </g>
     </g>
    </g>
    <g id="xtick_10">
     <g id="line2d_10">
      <g>
       <use xlink:href="#ma2123a620f" x="396.391233" y="289.949812" style="stroke: #000000; stroke-width: 0.8"/>
      </g>
     </g>
     <g id="text_10">
      <!-- $\frac{18}{18}$ -->
      <g transform="translate(388.741233 311.499812) scale(0.15 -0.15)">
       <use xlink:href="#DejaVuSans-31" transform="translate(0 45.046875) scale(0.7)"/>
       <use xlink:href="#DejaVuSans-38" transform="translate(44.536133 45.046875) scale(0.7)"/>
       <use xlink:href="#DejaVuSans-31" transform="translate(0 -39.151563) scale(0.7)"/>
       <use xlink:href="#DejaVuSans-38" transform="translate(44.536133 -39.151563) scale(0.7)"/>
       <path d="M 0 19.051563 
L 0 25.301563 
L 89.072266 25.301563 
L 89.072266 19.051563 
L 0 19.051563 
z
"/>
      </g>
     </g>
    </g>
    <g id="text_11">
     <!-- Ratio of misclassified jobs when using Flora -->
     <g transform="translate(80.138281 331.527781) scale(0.13 -0.13)">
      <defs>
       <path id="DejaVuSerif-52" d="M 3066 2316 
Q 3284 2256 3442 2114 
Q 3600 1972 3725 1716 
L 4403 331 
L 4972 331 
L 4972 0 
L 3872 0 
L 3144 1484 
Q 2934 1916 2759 2042 
Q 2584 2169 2278 2169 
L 1581 2169 
L 1581 331 
L 2241 331 
L 2241 0 
L 353 0 
L 353 331 
L 947 331 
L 947 4331 
L 353 4331 
L 353 4666 
L 2719 4666 
Q 3400 4666 3770 4341 
Q 4141 4016 4141 3419 
Q 4141 2938 3870 2661 
Q 3600 2384 3066 2316 
z
M 1581 2503 
L 2503 2503 
Q 2975 2503 3200 2726 
Q 3425 2950 3425 3419 
Q 3425 3888 3200 4109 
Q 2975 4331 2503 4331 
L 1581 4331 
L 1581 2503 
z
" transform="scale(0.015625)"/>
       <path id="DejaVuSerif-61" d="M 2547 1044 
L 2547 1747 
L 1806 1747 
Q 1378 1747 1168 1562 
Q 959 1378 959 997 
Q 959 650 1171 447 
Q 1384 244 1747 244 
Q 2106 244 2326 466 
Q 2547 688 2547 1044 
z
M 3122 2075 
L 3122 331 
L 3634 331 
L 3634 0 
L 2547 0 
L 2547 359 
Q 2356 128 2106 18 
Q 1856 -91 1522 -91 
Q 969 -91 644 203 
Q 319 497 319 997 
Q 319 1513 691 1797 
Q 1063 2081 1741 2081 
L 2547 2081 
L 2547 2309 
Q 2547 2688 2317 2895 
Q 2088 3103 1672 3103 
Q 1328 3103 1125 2947 
Q 922 2791 872 2484 
L 575 2484 
L 575 3156 
Q 875 3284 1158 3348 
Q 1441 3413 1709 3413 
Q 2400 3413 2761 3070 
Q 3122 2728 3122 2075 
z
" transform="scale(0.015625)"/>
       <path id="DejaVuSerif-74" d="M 691 2988 
L 184 2988 
L 184 3322 
L 691 3322 
L 691 4353 
L 1269 4353 
L 1269 3322 
L 2350 3322 
L 2350 2988 
L 1269 2988 
L 1269 878 
Q 1269 456 1350 337 
Q 1431 219 1650 219 
Q 1875 219 1978 351 
Q 2081 484 2088 781 
L 2522 781 
Q 2497 328 2275 118 
Q 2053 -91 1600 -91 
Q 1103 -91 897 129 
Q 691 350 691 878 
L 691 2988 
z
" transform="scale(0.015625)"/>
       <path id="DejaVuSerif-69" d="M 622 4353 
Q 622 4497 726 4603 
Q 831 4709 978 4709 
Q 1122 4709 1226 4603 
Q 1331 4497 1331 4353 
Q 1331 4206 1228 4103 
Q 1125 4000 978 4000 
Q 831 4000 726 4103 
Q 622 4206 622 4353 
z
M 1356 331 
L 1900 331 
L 1900 0 
L 231 0 
L 231 331 
L 781 331 
L 781 2988 
L 231 2988 
L 231 3322 
L 1356 3322 
L 1356 331 
z
" transform="scale(0.015625)"/>
       <path id="DejaVuSerif-6f" d="M 1925 219 
Q 2388 219 2623 584 
Q 2859 950 2859 1663 
Q 2859 2375 2623 2739 
Q 2388 3103 1925 3103 
Q 1463 3103 1227 2739 
Q 991 2375 991 1663 
Q 991 950 1228 584 
Q 1466 219 1925 219 
z
M 1925 -91 
Q 1200 -91 759 389 
Q 319 869 319 1663 
Q 319 2456 758 2934 
Q 1197 3413 1925 3413 
Q 2653 3413 3092 2934 
Q 3531 2456 3531 1663 
Q 3531 869 3092 389 
Q 2653 -91 1925 -91 
z
" transform="scale(0.015625)"/>
       <path id="DejaVuSerif-20" transform="scale(0.015625)"/>
       <path id="DejaVuSerif-66" d="M 2753 4078 
L 2450 4078 
Q 2447 4313 2317 4434 
Q 2188 4556 1941 4556 
Q 1619 4556 1487 4379 
Q 1356 4203 1356 3750 
L 1356 3322 
L 2284 3322 
L 2284 2988 
L 1356 2988 
L 1356 331 
L 2094 331 
L 2094 0 
L 231 0 
L 231 331 
L 781 331 
L 781 2988 
L 231 2988 
L 231 3322 
L 781 3322 
L 781 3738 
Q 781 4294 1070 4578 
Q 1359 4863 1919 4863 
Q 2128 4863 2337 4825 
Q 2547 4788 2753 4709 
L 2753 4078 
z
" transform="scale(0.015625)"/>
       <path id="DejaVuSerif-6d" d="M 3316 2675 
Q 3481 3041 3739 3227 
Q 3997 3413 4341 3413 
Q 4863 3413 5119 3089 
Q 5375 2766 5375 2113 
L 5375 331 
L 5894 331 
L 5894 0 
L 4300 0 
L 4300 331 
L 4800 331 
L 4800 2047 
Q 4800 2556 4650 2772 
Q 4500 2988 4153 2988 
Q 3769 2988 3567 2697 
Q 3366 2406 3366 1850 
L 3366 331 
L 3866 331 
L 3866 0 
L 2291 0 
L 2291 331 
L 2791 331 
L 2791 2069 
Q 2791 2566 2641 2777 
Q 2491 2988 2144 2988 
Q 1759 2988 1557 2697 
Q 1356 2406 1356 1850 
L 1356 331 
L 1856 331 
L 1856 0 
L 263 0 
L 263 331 
L 781 331 
L 781 2994 
L 231 2994 
L 231 3322 
L 1356 3322 
L 1356 2731 
Q 1516 3063 1762 3238 
Q 2009 3413 2322 3413 
Q 2709 3413 2968 3220 
Q 3228 3028 3316 2675 
z
" transform="scale(0.015625)"/>
       <path id="DejaVuSerif-73" d="M 359 184 
L 359 959 
L 691 959 
Q 703 588 923 403 
Q 1144 219 1575 219 
Q 1963 219 2166 364 
Q 2369 509 2369 788 
Q 2369 1006 2220 1140 
Q 2072 1275 1594 1428 
L 1178 1569 
Q 750 1706 558 1912 
Q 366 2119 366 2438 
Q 366 2894 700 3153 
Q 1034 3413 1625 3413 
Q 1888 3413 2178 3344 
Q 2469 3275 2778 3144 
L 2778 2419 
L 2447 2419 
Q 2434 2741 2221 2922 
Q 2009 3103 1644 3103 
Q 1281 3103 1095 2975 
Q 909 2847 909 2591 
Q 909 2381 1050 2254 
Q 1191 2128 1613 1997 
L 2069 1856 
Q 2541 1709 2748 1489 
Q 2956 1269 2956 922 
Q 2956 450 2595 179 
Q 2234 -91 1600 -91 
Q 1278 -91 972 -22 
Q 666 47 359 184 
z
" transform="scale(0.015625)"/>
       <path id="DejaVuSerif-63" d="M 3291 997 
Q 3169 466 2822 187 
Q 2475 -91 1925 -91 
Q 1200 -91 759 389 
Q 319 869 319 1663 
Q 319 2459 759 2936 
Q 1200 3413 1925 3413 
Q 2241 3413 2553 3339 
Q 2866 3266 3181 3116 
L 3181 2266 
L 2847 2266 
Q 2781 2703 2561 2903 
Q 2341 3103 1931 3103 
Q 1466 3103 1228 2742 
Q 991 2381 991 1663 
Q 991 944 1227 581 
Q 1463 219 1931 219 
Q 2303 219 2525 412 
Q 2747 606 2828 997 
L 3291 997 
z
" transform="scale(0.015625)"/>
       <path id="DejaVuSerif-6c" d="M 1313 331 
L 1856 331 
L 1856 0 
L 184 0 
L 184 331 
L 738 331 
L 738 4531 
L 184 4531 
L 184 4863 
L 1313 4863 
L 1313 331 
z
" transform="scale(0.015625)"/>
       <path id="DejaVuSerif-65" d="M 3469 1600 
L 991 1600 
L 991 1575 
Q 991 903 1244 561 
Q 1497 219 1991 219 
Q 2369 219 2611 417 
Q 2853 616 2950 1006 
L 3413 1006 
Q 3275 459 2904 184 
Q 2534 -91 1931 -91 
Q 1203 -91 761 389 
Q 319 869 319 1663 
Q 319 2450 753 2931 
Q 1188 3413 1894 3413 
Q 2647 3413 3050 2948 
Q 3453 2484 3469 1600 
z
M 2791 1931 
Q 2772 2513 2545 2808 
Q 2319 3103 1894 3103 
Q 1497 3103 1269 2806 
Q 1041 2509 991 1931 
L 2791 1931 
z
" transform="scale(0.015625)"/>
       <path id="DejaVuSerif-64" d="M 3359 331 
L 3909 331 
L 3909 0 
L 2784 0 
L 2784 519 
Q 2616 206 2355 57 
Q 2094 -91 1709 -91 
Q 1097 -91 708 395 
Q 319 881 319 1663 
Q 319 2444 706 2928 
Q 1094 3413 1709 3413 
Q 2094 3413 2355 3264 
Q 2616 3116 2784 2803 
L 2784 4531 
L 2241 4531 
L 2241 4863 
L 3359 4863 
L 3359 331 
z
M 2784 1497 
L 2784 1825 
Q 2784 2422 2554 2737 
Q 2325 3053 1888 3053 
Q 1444 3053 1217 2703 
Q 991 2353 991 1663 
Q 991 975 1217 622 
Q 1444 269 1888 269 
Q 2325 269 2554 583 
Q 2784 897 2784 1497 
z
" transform="scale(0.015625)"/>
       <path id="DejaVuSerif-6a" d="M 641 4353 
Q 641 4497 745 4603 
Q 850 4709 997 4709 
Q 1141 4709 1245 4603 
Q 1350 4497 1350 4353 
Q 1350 4206 1248 4103 
Q 1147 4000 997 4000 
Q 850 4000 745 4103 
Q 641 4206 641 4353 
z
M 781 2988 
L 238 2988 
L 238 3322 
L 1356 3322 
L 1356 -325 
Q 1356 -838 1051 -1130 
Q 747 -1422 213 -1422 
Q -13 -1422 -217 -1370 
Q -422 -1319 -616 -1216 
L -616 -531 
L -319 -531 
Q -297 -831 -164 -972 
Q -31 -1113 225 -1113 
Q 509 -1113 645 -920 
Q 781 -728 781 -325 
L 781 2988 
z
" transform="scale(0.015625)"/>
       <path id="DejaVuSerif-62" d="M 738 331 
L 738 4531 
L 184 4531 
L 184 4863 
L 1313 4863 
L 1313 2803 
Q 1481 3116 1742 3264 
Q 2003 3413 2388 3413 
Q 3000 3413 3387 2928 
Q 3775 2444 3775 1663 
Q 3775 881 3387 395 
Q 3000 -91 2388 -91 
Q 2003 -91 1742 57 
Q 1481 206 1313 519 
L 1313 0 
L 184 0 
L 184 331 
L 738 331 
z
M 1313 1497 
Q 1313 897 1542 583 
Q 1772 269 2209 269 
Q 2650 269 2876 622 
Q 3103 975 3103 1663 
Q 3103 2353 2876 2703 
Q 2650 3053 2209 3053 
Q 1772 3053 1542 2737 
Q 1313 2422 1313 1825 
L 1313 1497 
z
" transform="scale(0.015625)"/>
       <path id="DejaVuSerif-77" d="M 3072 3322 
L 3922 728 
L 4672 2988 
L 4191 2988 
L 4191 3322 
L 5394 3322 
L 5394 2988 
L 5025 2988 
L 4038 0 
L 3559 0 
L 2741 2484 
L 1919 0 
L 1459 0 
L 475 2988 
L 103 2988 
L 103 3322 
L 1606 3322 
L 1606 2988 
L 1069 2988 
L 1813 728 
L 2669 3322 
L 3072 3322 
z
" transform="scale(0.015625)"/>
       <path id="DejaVuSerif-68" d="M 263 0 
L 263 331 
L 781 331 
L 781 4531 
L 231 4531 
L 231 4863 
L 1356 4863 
L 1356 2731 
Q 1516 3069 1770 3241 
Q 2025 3413 2363 3413 
Q 2913 3413 3172 3097 
Q 3431 2781 3431 2113 
L 3431 331 
L 3944 331 
L 3944 0 
L 2356 0 
L 2356 331 
L 2853 331 
L 2853 1931 
Q 2853 2541 2704 2764 
Q 2556 2988 2175 2988 
Q 1775 2988 1565 2697 
Q 1356 2406 1356 1850 
L 1356 331 
L 1856 331 
L 1856 0 
L 263 0 
z
" transform="scale(0.015625)"/>
       <path id="DejaVuSerif-6e" d="M 263 0 
L 263 331 
L 781 331 
L 781 2988 
L 231 2988 
L 231 3322 
L 1356 3322 
L 1356 2731 
Q 1516 3069 1770 3241 
Q 2025 3413 2363 3413 
Q 2913 3413 3172 3097 
Q 3431 2781 3431 2113 
L 3431 331 
L 3944 331 
L 3944 0 
L 2356 0 
L 2356 331 
L 2853 331 
L 2853 1931 
Q 2853 2541 2703 2767 
Q 2553 2994 2175 2994 
Q 1775 2994 1565 2701 
Q 1356 2409 1356 1850 
L 1356 331 
L 1856 331 
L 1856 0 
L 263 0 
z
" transform="scale(0.015625)"/>
       <path id="DejaVuSerif-75" d="M 2266 3322 
L 3341 3322 
L 3341 331 
L 3884 331 
L 3884 0 
L 2766 0 
L 2766 588 
Q 2606 256 2353 82 
Q 2100 -91 1766 -91 
Q 1213 -91 952 223 
Q 691 538 691 1209 
L 691 2988 
L 172 2988 
L 172 3322 
L 1269 3322 
L 1269 1388 
Q 1269 781 1417 556 
Q 1566 331 1947 331 
Q 2347 331 2556 625 
Q 2766 919 2766 1478 
L 2766 2988 
L 2266 2988 
L 2266 3322 
z
" transform="scale(0.015625)"/>
       <path id="DejaVuSerif-67" d="M 3359 2988 
L 3359 72 
Q 3359 -644 2965 -1033 
Q 2572 -1422 1844 -1422 
Q 1516 -1422 1216 -1362 
Q 916 -1303 641 -1184 
L 641 -488 
L 941 -488 
Q 997 -813 1206 -963 
Q 1416 -1113 1806 -1113 
Q 2313 -1113 2548 -827 
Q 2784 -541 2784 72 
L 2784 519 
Q 2616 206 2355 57 
Q 2094 -91 1709 -91 
Q 1097 -91 708 395 
Q 319 881 319 1663 
Q 319 2444 706 2928 
Q 1094 3413 1709 3413 
Q 2094 3413 2355 3264 
Q 2616 3116 2784 2803 
L 2784 3322 
L 3909 3322 
L 3909 2988 
L 3359 2988 
z
M 2784 1825 
Q 2784 2422 2554 2737 
Q 2325 3053 1888 3053 
Q 1444 3053 1217 2703 
Q 991 2353 991 1663 
Q 991 975 1217 622 
Q 1444 269 1888 269 
Q 2325 269 2554 583 
Q 2784 897 2784 1497 
L 2784 1825 
z
" transform="scale(0.015625)"/>
       <path id="DejaVuSerif-46" d="M 353 0 
L 353 331 
L 947 331 
L 947 4331 
L 353 4331 
L 353 4666 
L 4172 4666 
L 4172 3628 
L 3788 3628 
L 3788 4281 
L 1581 4281 
L 1581 2719 
L 3175 2719 
L 3175 3303 
L 3559 3303 
L 3559 1753 
L 3175 1753 
L 3175 2338 
L 1581 2338 
L 1581 331 
L 2328 331 
L 2328 0 
L 353 0 
z
" transform="scale(0.015625)"/>
       <path id="DejaVuSerif-72" d="M 3059 3328 
L 3059 2497 
L 2728 2497 
Q 2713 2744 2591 2866 
Q 2469 2988 2234 2988 
Q 1809 2988 1582 2694 
Q 1356 2400 1356 1850 
L 1356 331 
L 2022 331 
L 2022 0 
L 263 0 
L 263 331 
L 781 331 
L 781 2994 
L 231 2994 
L 231 3322 
L 1356 3322 
L 1356 2731 
Q 1525 3078 1790 3245 
Q 2056 3413 2438 3413 
Q 2578 3413 2733 3391 
Q 2888 3369 3059 3328 
z
" transform="scale(0.015625)"/>
      </defs>
      <use xlink:href="#DejaVuSerif-52"/>
      <use xlink:href="#DejaVuSerif-61" x="77.542969"/>
      <use xlink:href="#DejaVuSerif-74" x="137.162109"/>
      <use xlink:href="#DejaVuSerif-69" x="177.347656"/>
      <use xlink:href="#DejaVuSerif-6f" x="209.330078"/>
      <use xlink:href="#DejaVuSerif-20" x="269.535156"/>
      <use xlink:href="#DejaVuSerif-6f" x="301.322266"/>
      <use xlink:href="#DejaVuSerif-66" x="361.527344"/>
      <use xlink:href="#DejaVuSerif-20" x="398.539062"/>
      <use xlink:href="#DejaVuSerif-6d" x="430.326172"/>
      <use xlink:href="#DejaVuSerif-69" x="525.150391"/>
      <use xlink:href="#DejaVuSerif-73" x="557.132812"/>
      <use xlink:href="#DejaVuSerif-63" x="608.451172"/>
      <use xlink:href="#DejaVuSerif-6c" x="664.457031"/>
      <use xlink:href="#DejaVuSerif-61" x="696.439453"/>
      <use xlink:href="#DejaVuSerif-73" x="756.058594"/>
      <use xlink:href="#DejaVuSerif-73" x="807.376953"/>
      <use xlink:href="#DejaVuSerif-69" x="858.695312"/>
      <use xlink:href="#DejaVuSerif-66" x="890.677734"/>
      <use xlink:href="#DejaVuSerif-69" x="927.689453"/>
      <use xlink:href="#DejaVuSerif-65" x="959.671875"/>
      <use xlink:href="#DejaVuSerif-64" x="1018.851562"/>
      <use xlink:href="#DejaVuSerif-20" x="1082.865234"/>
      <use xlink:href="#DejaVuSerif-6a" x="1114.652344"/>
      <use xlink:href="#DejaVuSerif-6f" x="1145.658203"/>
      <use xlink:href="#DejaVuSerif-62" x="1205.863281"/>
      <use xlink:href="#DejaVuSerif-73" x="1269.876953"/>
      <use xlink:href="#DejaVuSerif-20" x="1321.195312"/>
      <use xlink:href="#DejaVuSerif-77" x="1352.982422"/>
      <use xlink:href="#DejaVuSerif-68" x="1438.578125"/>
      <use xlink:href="#DejaVuSerif-65" x="1502.982422"/>
      <use xlink:href="#DejaVuSerif-6e" x="1562.162109"/>
      <use xlink:href="#DejaVuSerif-20" x="1626.566406"/>
      <use xlink:href="#DejaVuSerif-75" x="1658.353516"/>
      <use xlink:href="#DejaVuSerif-73" x="1722.757812"/>
      <use xlink:href="#DejaVuSerif-69" x="1774.076172"/>
      <use xlink:href="#DejaVuSerif-6e" x="1806.058594"/>
      <use xlink:href="#DejaVuSerif-67" x="1870.462891"/>
      <use xlink:href="#DejaVuSerif-20" x="1934.476562"/>
      <use xlink:href="#DejaVuSerif-46" x="1966.263672"/>
      <use xlink:href="#DejaVuSerif-6c" x="2035.648438"/>
      <use xlink:href="#DejaVuSerif-6f" x="2067.630859"/>
      <use xlink:href="#DejaVuSerif-72" x="2127.835938"/>
      <use xlink:href="#DejaVuSerif-61" x="2175.638672"/>
     </g>
    </g>
   </g>
   <g id="matplotlib.axis_2">
    <g id="ytick_1">
     <g id="line2d_11">
      <path d="M 46.869531 289.927638 
L 403.989531 289.927638 
" clip-path="url(#pc3e6861d7e)" style="fill: none; stroke: #808080; stroke-opacity: 0.4; stroke-width: 0.2; stroke-linecap: square"/>
     </g>
     <g id="line2d_12">
      <defs>
       <path id="mf0ef25337b" d="M 0 0 
L -3.5 0 
" style="stroke: #000000; stroke-width: 0.8"/>
      </defs>
      <g>
       <use xlink:href="#mf0ef25337b" x="46.869531" y="289.927638" style="stroke: #000000; stroke-width: 0.8"/>
      </g>
     </g>
     <g id="text_12">
      <!-- 1.0 -->
      <g transform="translate(23.966406 293.726857) scale(0.1 -0.1)">
       <defs>
        <path id="DejaVuSerif-31" d="M 909 0 
L 909 331 
L 1722 331 
L 1722 4213 
L 781 3603 
L 781 4013 
L 1919 4750 
L 2350 4750 
L 2350 331 
L 3163 331 
L 3163 0 
L 909 0 
z
" transform="scale(0.015625)"/>
        <path id="DejaVuSerif-2e" d="M 603 325 
Q 603 500 722 622 
Q 841 744 1019 744 
Q 1191 744 1312 622 
Q 1434 500 1434 325 
Q 1434 153 1312 31 
Q 1191 -91 1019 -91 
Q 841 -91 722 29 
Q 603 150 603 325 
z
" transform="scale(0.015625)"/>
        <path id="DejaVuSerif-30" d="M 2034 219 
Q 2513 219 2750 744 
Q 2988 1269 2988 2328 
Q 2988 3391 2750 3916 
Q 2513 4441 2034 4441 
Q 1556 4441 1318 3916 
Q 1081 3391 1081 2328 
Q 1081 1269 1318 744 
Q 1556 219 2034 219 
z
M 2034 -91 
Q 1275 -91 848 546 
Q 422 1184 422 2328 
Q 422 3475 848 4112 
Q 1275 4750 2034 4750 
Q 2797 4750 3222 4112 
Q 3647 3475 3647 2328 
Q 3647 1184 3222 546 
Q 2797 -91 2034 -91 
z
" transform="scale(0.015625)"/>
       </defs>
       <use xlink:href="#DejaVuSerif-31"/>
       <use xlink:href="#DejaVuSerif-2e" x="63.623047"/>
       <use xlink:href="#DejaVuSerif-30" x="95.410156"/>
      </g>
     </g>
    </g>
    <g id="ytick_2">
     <g id="line2d_13">
      <path d="M 46.869531 267.753486 
L 403.989531 267.753486 
" clip-path="url(#pc3e6861d7e)" style="fill: none; stroke: #808080; stroke-opacity: 0.4; stroke-width: 0.2; stroke-linecap: square"/>
     </g>
     <g id="line2d_14">
      <g>
       <use xlink:href="#mf0ef25337b" x="46.869531" y="267.753486" style="stroke: #000000; stroke-width: 0.8"/>
      </g>
     </g>
     <g id="text_13">
      <!-- 1.1 -->
      <g transform="translate(23.966406 271.552705) scale(0.1 -0.1)">
       <use xlink:href="#DejaVuSerif-31"/>
       <use xlink:href="#DejaVuSerif-2e" x="63.623047"/>
       <use xlink:href="#DejaVuSerif-31" x="95.410156"/>
      </g>
     </g>
    </g>
    <g id="ytick_3">
     <g id="line2d_15">
      <path d="M 46.869531 245.579334 
L 403.989531 245.579334 
" clip-path="url(#pc3e6861d7e)" style="fill: none; stroke: #808080; stroke-opacity: 0.4; stroke-width: 0.2; stroke-linecap: square"/>
     </g>
     <g id="line2d_16">
      <g>
       <use xlink:href="#mf0ef25337b" x="46.869531" y="245.579334" style="stroke: #000000; stroke-width: 0.8"/>
      </g>
     </g>
     <g id="text_14">
      <!-- 1.2 -->
      <g transform="translate(23.966406 249.378553) scale(0.1 -0.1)">
       <defs>
        <path id="DejaVuSerif-32" d="M 819 3553 
L 469 3553 
L 469 4384 
Q 803 4563 1142 4656 
Q 1481 4750 1806 4750 
Q 2534 4750 2956 4397 
Q 3378 4044 3378 3438 
Q 3378 2753 2422 1800 
Q 2347 1728 2309 1691 
L 1131 513 
L 3078 513 
L 3078 1088 
L 3444 1088 
L 3444 0 
L 434 0 
L 434 341 
L 1850 1753 
Q 2319 2222 2519 2614 
Q 2719 3006 2719 3438 
Q 2719 3909 2473 4175 
Q 2228 4441 1797 4441 
Q 1350 4441 1106 4219 
Q 863 3997 819 3553 
z
" transform="scale(0.015625)"/>
       </defs>
       <use xlink:href="#DejaVuSerif-31"/>
       <use xlink:href="#DejaVuSerif-2e" x="63.623047"/>
       <use xlink:href="#DejaVuSerif-32" x="95.410156"/>
      </g>
     </g>
    </g>
    <g id="ytick_4">
     <g id="line2d_17">
      <path d="M 46.869531 223.405182 
L 403.989531 223.405182 
" clip-path="url(#pc3e6861d7e)" style="fill: none; stroke: #808080; stroke-opacity: 0.4; stroke-width: 0.2; stroke-linecap: square"/>
     </g>
     <g id="line2d_18">
      <g>
       <use xlink:href="#mf0ef25337b" x="46.869531" y="223.405182" style="stroke: #000000; stroke-width: 0.8"/>
      </g>
     </g>
     <g id="text_15">
      <!-- 1.3 -->
      <g transform="translate(23.966406 227.204401) scale(0.1 -0.1)">
       <defs>
        <path id="DejaVuSerif-33" d="M 622 4469 
Q 988 4606 1323 4678 
Q 1659 4750 1953 4750 
Q 2638 4750 3022 4454 
Q 3406 4159 3406 3634 
Q 3406 3213 3140 2930 
Q 2875 2647 2388 2547 
Q 2963 2466 3280 2130 
Q 3597 1794 3597 1259 
Q 3597 606 3158 257 
Q 2719 -91 1894 -91 
Q 1528 -91 1179 -12 
Q 831 66 488 225 
L 488 1131 
L 838 1131 
Q 869 681 1141 450 
Q 1413 219 1906 219 
Q 2384 219 2661 495 
Q 2938 772 2938 1253 
Q 2938 1803 2653 2086 
Q 2369 2369 1819 2369 
L 1522 2369 
L 1522 2688 
L 1678 2688 
Q 2225 2688 2498 2914 
Q 2772 3141 2772 3597 
Q 2772 4006 2547 4223 
Q 2322 4441 1900 4441 
Q 1478 4441 1245 4241 
Q 1013 4041 972 3647 
L 622 3647 
L 622 4469 
z
" transform="scale(0.015625)"/>
       </defs>
       <use xlink:href="#DejaVuSerif-31"/>
       <use xlink:href="#DejaVuSerif-2e" x="63.623047"/>
       <use xlink:href="#DejaVuSerif-33" x="95.410156"/>
      </g>
     </g>
    </g>
    <g id="ytick_5">
     <g id="line2d_19">
      <path d="M 46.869531 201.23103 
L 403.989531 201.23103 
" clip-path="url(#pc3e6861d7e)" style="fill: none; stroke: #808080; stroke-opacity: 0.4; stroke-width: 0.2; stroke-linecap: square"/>
     </g>
     <g id="line2d_20">
      <g>
       <use xlink:href="#mf0ef25337b" x="46.869531" y="201.23103" style="stroke: #000000; stroke-width: 0.8"/>
      </g>
     </g>
     <g id="text_16">
      <!-- 1.4 -->
      <g transform="translate(23.966406 205.030248) scale(0.1 -0.1)">
       <defs>
        <path id="DejaVuSerif-34" d="M 2234 1581 
L 2234 4063 
L 641 1581 
L 2234 1581 
z
M 3609 0 
L 1484 0 
L 1484 331 
L 2234 331 
L 2234 1247 
L 197 1247 
L 197 1588 
L 2241 4750 
L 2859 4750 
L 2859 1581 
L 3750 1581 
L 3750 1247 
L 2859 1247 
L 2859 331 
L 3609 331 
L 3609 0 
z
" transform="scale(0.015625)"/>
       </defs>
       <use xlink:href="#DejaVuSerif-31"/>
       <use xlink:href="#DejaVuSerif-2e" x="63.623047"/>
       <use xlink:href="#DejaVuSerif-34" x="95.410156"/>
      </g>
     </g>
    </g>
    <g id="ytick_6">
     <g id="line2d_21">
      <path d="M 46.869531 179.056878 
L 403.989531 179.056878 
" clip-path="url(#pc3e6861d7e)" style="fill: none; stroke: #808080; stroke-opacity: 0.4; stroke-width: 0.2; stroke-linecap: square"/>
     </g>
     <g id="line2d_22">
      <g>
       <use xlink:href="#mf0ef25337b" x="46.869531" y="179.056878" style="stroke: #000000; stroke-width: 0.8"/>
      </g>
     </g>
     <g id="text_17">
      <!-- 1.5 -->
      <g transform="translate(23.966406 182.856096) scale(0.1 -0.1)">
       <defs>
        <path id="DejaVuSerif-35" d="M 3219 4666 
L 3219 4153 
L 1081 4153 
L 1081 2816 
Q 1244 2928 1461 2984 
Q 1678 3041 1947 3041 
Q 2703 3041 3140 2622 
Q 3578 2203 3578 1478 
Q 3578 738 3136 323 
Q 2694 -91 1894 -91 
Q 1572 -91 1234 -12 
Q 897 66 544 225 
L 544 1131 
L 897 1131 
Q 925 688 1179 453 
Q 1434 219 1894 219 
Q 2388 219 2653 544 
Q 2919 869 2919 1478 
Q 2919 2084 2655 2407 
Q 2391 2731 1894 2731 
Q 1613 2731 1398 2631 
Q 1184 2531 1019 2322 
L 750 2322 
L 750 4666 
L 3219 4666 
z
" transform="scale(0.015625)"/>
       </defs>
       <use xlink:href="#DejaVuSerif-31"/>
       <use xlink:href="#DejaVuSerif-2e" x="63.623047"/>
       <use xlink:href="#DejaVuSerif-35" x="95.410156"/>
      </g>
     </g>
    </g>
    <g id="ytick_7">
     <g id="line2d_23">
      <path d="M 46.869531 156.882725 
L 403.989531 156.882725 
" clip-path="url(#pc3e6861d7e)" style="fill: none; stroke: #808080; stroke-opacity: 0.4; stroke-width: 0.2; stroke-linecap: square"/>
     </g>
     <g id="line2d_24">
      <g>
       <use xlink:href="#mf0ef25337b" x="46.869531" y="156.882725" style="stroke: #000000; stroke-width: 0.8"/>
      </g>
     </g>
     <g id="text_18">
      <!-- 1.6 -->
      <g transform="translate(23.966406 160.681944) scale(0.1 -0.1)">
       <defs>
        <path id="DejaVuSerif-36" d="M 2094 219 
Q 2534 219 2771 542 
Q 3009 866 3009 1472 
Q 3009 2078 2771 2401 
Q 2534 2725 2094 2725 
Q 1647 2725 1412 2412 
Q 1178 2100 1178 1509 
Q 1178 888 1415 553 
Q 1653 219 2094 219 
z
M 1075 2569 
Q 1288 2803 1556 2918 
Q 1825 3034 2163 3034 
Q 2859 3034 3264 2615 
Q 3669 2197 3669 1472 
Q 3669 763 3233 336 
Q 2797 -91 2069 -91 
Q 1278 -91 853 498 
Q 428 1088 428 2181 
Q 428 3406 931 4078 
Q 1434 4750 2350 4750 
Q 2597 4750 2869 4703 
Q 3141 4656 3425 4563 
L 3425 3794 
L 3072 3794 
Q 3034 4109 2831 4275 
Q 2628 4441 2284 4441 
Q 1678 4441 1381 3981 
Q 1084 3522 1075 2569 
z
" transform="scale(0.015625)"/>
       </defs>
       <use xlink:href="#DejaVuSerif-31"/>
       <use xlink:href="#DejaVuSerif-2e" x="63.623047"/>
       <use xlink:href="#DejaVuSerif-36" x="95.410156"/>
      </g>
     </g>
    </g>
    <g id="ytick_8">
     <g id="line2d_25">
      <path d="M 46.869531 134.708573 
L 403.989531 134.708573 
" clip-path="url(#pc3e6861d7e)" style="fill: none; stroke: #808080; stroke-opacity: 0.4; stroke-width: 0.2; stroke-linecap: square"/>
     </g>
     <g id="line2d_26">
      <g>
       <use xlink:href="#mf0ef25337b" x="46.869531" y="134.708573" style="stroke: #000000; stroke-width: 0.8"/>
      </g>
     </g>
     <g id="text_19">
      <!-- 1.7 -->
      <g transform="translate(23.966406 138.507792) scale(0.1 -0.1)">
       <defs>
        <path id="DejaVuSerif-37" d="M 3609 4347 
L 1784 0 
L 1319 0 
L 3059 4153 
L 903 4153 
L 903 3578 
L 538 3578 
L 538 4666 
L 3609 4666 
L 3609 4347 
z
" transform="scale(0.015625)"/>
       </defs>
       <use xlink:href="#DejaVuSerif-31"/>
       <use xlink:href="#DejaVuSerif-2e" x="63.623047"/>
       <use xlink:href="#DejaVuSerif-37" x="95.410156"/>
      </g>
     </g>
    </g>
    <g id="ytick_9">
     <g id="line2d_27">
      <path d="M 46.869531 112.534421 
L 403.989531 112.534421 
" clip-path="url(#pc3e6861d7e)" style="fill: none; stroke: #808080; stroke-opacity: 0.4; stroke-width: 0.2; stroke-linecap: square"/>
     </g>
     <g id="line2d_28">
      <g>
       <use xlink:href="#mf0ef25337b" x="46.869531" y="112.534421" style="stroke: #000000; stroke-width: 0.8"/>
      </g>
     </g>
     <g id="text_20">
      <!-- 1.8 -->
      <g transform="translate(23.966406 116.33364) scale(0.1 -0.1)">
       <defs>
        <path id="DejaVuSerif-38" d="M 2981 1275 
Q 2981 1775 2732 2051 
Q 2484 2328 2034 2328 
Q 1584 2328 1336 2051 
Q 1088 1775 1088 1275 
Q 1088 772 1336 495 
Q 1584 219 2034 219 
Q 2484 219 2732 495 
Q 2981 772 2981 1275 
z
M 2853 3541 
Q 2853 3966 2637 4203 
Q 2422 4441 2034 4441 
Q 1650 4441 1433 4203 
Q 1216 3966 1216 3541 
Q 1216 3113 1433 2875 
Q 1650 2638 2034 2638 
Q 2422 2638 2637 2875 
Q 2853 3113 2853 3541 
z
M 2516 2484 
Q 3047 2413 3344 2092 
Q 3641 1772 3641 1275 
Q 3641 619 3225 264 
Q 2809 -91 2034 -91 
Q 1263 -91 845 264 
Q 428 619 428 1275 
Q 428 1772 725 2092 
Q 1022 2413 1556 2484 
Q 1084 2569 832 2842 
Q 581 3116 581 3541 
Q 581 4103 968 4426 
Q 1356 4750 2034 4750 
Q 2713 4750 3100 4426 
Q 3488 4103 3488 3541 
Q 3488 3116 3236 2842 
Q 2984 2569 2516 2484 
z
" transform="scale(0.015625)"/>
       </defs>
       <use xlink:href="#DejaVuSerif-31"/>
       <use xlink:href="#DejaVuSerif-2e" x="63.623047"/>
       <use xlink:href="#DejaVuSerif-38" x="95.410156"/>
      </g>
     </g>
    </g>
    <g id="ytick_10">
     <g id="line2d_29">
      <path d="M 46.869531 90.360269 
L 403.989531 90.360269 
" clip-path="url(#pc3e6861d7e)" style="fill: none; stroke: #808080; stroke-opacity: 0.4; stroke-width: 0.2; stroke-linecap: square"/>
     </g>
     <g id="line2d_30">
      <g>
       <use xlink:href="#mf0ef25337b" x="46.869531" y="90.360269" style="stroke: #000000; stroke-width: 0.8"/>
      </g>
     </g>
     <g id="text_21">
      <!-- 1.9 -->
      <g transform="translate(23.966406 94.159488) scale(0.1 -0.1)">
       <defs>
        <path id="DejaVuSerif-39" d="M 2994 2091 
Q 2784 1856 2512 1740 
Q 2241 1625 1900 1625 
Q 1206 1625 804 2044 
Q 403 2463 403 3188 
Q 403 3897 839 4323 
Q 1275 4750 2003 4750 
Q 2794 4750 3217 4161 
Q 3641 3572 3641 2478 
Q 3641 1253 3137 581 
Q 2634 -91 1722 -91 
Q 1475 -91 1203 -44 
Q 931 3 647 97 
L 647 872 
L 997 872 
Q 1038 556 1241 387 
Q 1444 219 1784 219 
Q 2391 219 2687 676 
Q 2984 1134 2994 2091 
z
M 1978 4441 
Q 1534 4441 1298 4117 
Q 1063 3794 1063 3188 
Q 1063 2581 1298 2256 
Q 1534 1931 1978 1931 
Q 2422 1931 2658 2245 
Q 2894 2559 2894 3150 
Q 2894 3772 2656 4106 
Q 2419 4441 1978 4441 
z
" transform="scale(0.015625)"/>
       </defs>
       <use xlink:href="#DejaVuSerif-31"/>
       <use xlink:href="#DejaVuSerif-2e" x="63.623047"/>
       <use xlink:href="#DejaVuSerif-39" x="95.410156"/>
      </g>
     </g>
    </g>
    <g id="ytick_11">
     <g id="line2d_31">
      <path d="M 46.869531 68.186117 
L 403.989531 68.186117 
" clip-path="url(#pc3e6861d7e)" style="fill: none; stroke: #808080; stroke-opacity: 0.4; stroke-width: 0.2; stroke-linecap: square"/>
     </g>
     <g id="line2d_32">
      <g>
       <use xlink:href="#mf0ef25337b" x="46.869531" y="68.186117" style="stroke: #000000; stroke-width: 0.8"/>
      </g>
     </g>
     <g id="text_22">
      <!-- 2.0 -->
      <g transform="translate(23.966406 71.985336) scale(0.1 -0.1)">
       <use xlink:href="#DejaVuSerif-32"/>
       <use xlink:href="#DejaVuSerif-2e" x="63.623047"/>
       <use xlink:href="#DejaVuSerif-30" x="95.410156"/>
      </g>
     </g>
    </g>
    <g id="ytick_12">
     <g id="line2d_33">
      <path d="M 46.869531 46.011965 
L 403.989531 46.011965 
" clip-path="url(#pc3e6861d7e)" style="fill: none; stroke: #808080; stroke-opacity: 0.4; stroke-width: 0.2; stroke-linecap: square"/>
     </g>
     <g id="line2d_34">
      <g>
       <use xlink:href="#mf0ef25337b" x="46.869531" y="46.011965" style="stroke: #000000; stroke-width: 0.8"/>
      </g>
     </g>
     <g id="text_23">
      <!-- 2.1 -->
      <g transform="translate(23.966406 49.811183) scale(0.1 -0.1)">
       <use xlink:href="#DejaVuSerif-32"/>
       <use xlink:href="#DejaVuSerif-2e" x="63.623047"/>
       <use xlink:href="#DejaVuSerif-31" x="95.410156"/>
      </g>
     </g>
    </g>
    <g id="ytick_13">
     <g id="line2d_35">
      <path d="M 46.869531 23.837813 
L 403.989531 23.837813 
" clip-path="url(#pc3e6861d7e)" style="fill: none; stroke: #808080; stroke-opacity: 0.4; stroke-width: 0.2; stroke-linecap: square"/>
     </g>
     <g id="line2d_36">
      <g>
       <use xlink:href="#mf0ef25337b" x="46.869531" y="23.837813" style="stroke: #000000; stroke-width: 0.8"/>
      </g>
     </g>
     <g id="text_24">
      <!-- 2.2 -->
      <g transform="translate(23.966406 27.637031) scale(0.1 -0.1)">
       <use xlink:href="#DejaVuSerif-32"/>
       <use xlink:href="#DejaVuSerif-2e" x="63.623047"/>
       <use xlink:href="#DejaVuSerif-32" x="95.410156"/>
      </g>
     </g>
    </g>
    <g id="text_25">
     <!-- Monetary cost of execution [normalized] -->
     <g transform="translate(17.077969 290.731859) rotate(-90) scale(0.13 -0.13)">
      <defs>
       <path id="DejaVuSerif-4d" d="M 353 0 
L 353 331 
L 947 331 
L 947 4331 
L 319 4331 
L 319 4666 
L 1678 4666 
L 3316 1344 
L 4953 4666 
L 6228 4666 
L 6228 4331 
L 5606 4331 
L 5606 331 
L 6203 331 
L 6203 0 
L 4378 0 
L 4378 331 
L 4972 331 
L 4972 3938 
L 3372 684 
L 2931 684 
L 1331 3938 
L 1331 331 
L 1925 331 
L 1925 0 
L 353 0 
z
" transform="scale(0.015625)"/>
       <path id="DejaVuSerif-79" d="M 1381 -609 
L 1600 -56 
L 359 2988 
L -19 2988 
L -19 3322 
L 1509 3322 
L 1509 2988 
L 978 2988 
L 1913 703 
L 2847 2988 
L 2350 2988 
L 2350 3322 
L 3597 3322 
L 3597 2988 
L 3225 2988 
L 1703 -750 
Q 1547 -1138 1356 -1280 
Q 1166 -1422 819 -1422 
Q 672 -1422 517 -1397 
Q 363 -1372 206 -1325 
L 206 -691 
L 500 -691 
Q 519 -903 608 -995 
Q 697 -1088 884 -1088 
Q 1056 -1088 1161 -992 
Q 1266 -897 1381 -609 
z
" transform="scale(0.015625)"/>
       <path id="DejaVuSerif-78" d="M 1863 2028 
L 2559 2988 
L 2113 2988 
L 2113 3322 
L 3391 3322 
L 3391 2988 
L 2950 2988 
L 2059 1759 
L 3097 331 
L 3531 331 
L 3531 0 
L 1997 0 
L 1997 331 
L 2419 331 
L 1697 1325 
L 972 331 
L 1403 331 
L 1403 0 
L 141 0 
L 141 331 
L 581 331 
L 1497 1594 
L 488 2988 
L 78 2988 
L 78 3322 
L 1563 3322 
L 1563 2988 
L 1166 2988 
L 1863 2028 
z
" transform="scale(0.015625)"/>
       <path id="DejaVuSerif-5b" d="M 550 4863 
L 2003 4863 
L 2003 4531 
L 1147 4531 
L 1147 -513 
L 2003 -513 
L 2003 -844 
L 550 -844 
L 550 4863 
z
" transform="scale(0.015625)"/>
       <path id="DejaVuSerif-7a" d="M 256 0 
L 256 269 
L 2338 2988 
L 691 2988 
L 691 2413 
L 359 2413 
L 359 3322 
L 3078 3322 
L 3078 3053 
L 997 331 
L 2803 331 
L 2803 934 
L 3138 934 
L 3138 0 
L 256 0 
z
" transform="scale(0.015625)"/>
       <path id="DejaVuSerif-5d" d="M 1947 4863 
L 1947 -844 
L 494 -844 
L 494 -513 
L 1350 -513 
L 1350 4531 
L 494 4531 
L 494 4863 
L 1947 4863 
z
" transform="scale(0.015625)"/>
      </defs>
      <use xlink:href="#DejaVuSerif-4d"/>
      <use xlink:href="#DejaVuSerif-6f" x="102.392578"/>
      <use xlink:href="#DejaVuSerif-6e" x="162.597656"/>
      <use xlink:href="#DejaVuSerif-65" x="227.001953"/>
      <use xlink:href="#DejaVuSerif-74" x="286.181641"/>
      <use xlink:href="#DejaVuSerif-61" x="326.367188"/>
      <use xlink:href="#DejaVuSerif-72" x="385.986328"/>
      <use xlink:href="#DejaVuSerif-79" x="433.789062"/>
      <use xlink:href="#DejaVuSerif-20" x="490.283203"/>
      <use xlink:href="#DejaVuSerif-63" x="522.070312"/>
      <use xlink:href="#DejaVuSerif-6f" x="578.076172"/>
      <use xlink:href="#DejaVuSerif-73" x="638.28125"/>
      <use xlink:href="#DejaVuSerif-74" x="689.599609"/>
      <use xlink:href="#DejaVuSerif-20" x="729.785156"/>
      <use xlink:href="#DejaVuSerif-6f" x="761.572266"/>
      <use xlink:href="#DejaVuSerif-66" x="821.777344"/>
      <use xlink:href="#DejaVuSerif-20" x="858.789062"/>
      <use xlink:href="#DejaVuSerif-65" x="890.576172"/>
      <use xlink:href="#DejaVuSerif-78" x="949.755859"/>
      <use xlink:href="#DejaVuSerif-65" x="1006.152344"/>
      <use xlink:href="#DejaVuSerif-63" x="1065.332031"/>
      <use xlink:href="#DejaVuSerif-75" x="1121.337891"/>
      <use xlink:href="#DejaVuSerif-74" x="1185.742188"/>
      <use xlink:href="#DejaVuSerif-69" x="1225.927734"/>
      <use xlink:href="#DejaVuSerif-6f" x="1257.910156"/>
      <use xlink:href="#DejaVuSerif-6e" x="1318.115234"/>
      <use xlink:href="#DejaVuSerif-20" x="1382.519531"/>
      <use xlink:href="#DejaVuSerif-5b" x="1414.306641"/>
      <use xlink:href="#DejaVuSerif-6e" x="1453.320312"/>
      <use xlink:href="#DejaVuSerif-6f" x="1517.724609"/>
      <use xlink:href="#DejaVuSerif-72" x="1577.929688"/>
      <use xlink:href="#DejaVuSerif-6d" x="1625.732422"/>
      <use xlink:href="#DejaVuSerif-61" x="1720.556641"/>
      <use xlink:href="#DejaVuSerif-6c" x="1780.175781"/>
      <use xlink:href="#DejaVuSerif-69" x="1812.158203"/>
      <use xlink:href="#DejaVuSerif-7a" x="1844.140625"/>
      <use xlink:href="#DejaVuSerif-65" x="1896.826172"/>
      <use xlink:href="#DejaVuSerif-64" x="1956.005859"/>
      <use xlink:href="#DejaVuSerif-5d" x="2020.019531"/>
     </g>
    </g>
   </g>
   <g id="line2d_37">
    <path d="M 16.47634 81.344259 
L 414.329062 81.344259 
" clip-path="url(#pc3e6861d7e)" style="fill: none; stroke: #a9a9a9; stroke-width: 2; stroke-linecap: square"/>
   </g>
   <g id="line2d_38">
    <path d="M 16.47634 215.365056 
L 414.329062 215.365056 
" clip-path="url(#pc3e6861d7e)" style="fill: none; stroke: #6495ed; stroke-width: 2; stroke-linecap: square"/>
   </g>
   <g id="line2d_39">
    <path d="M 225.429531 342.616219 
L 225.429531 170.6307 
" clip-path="url(#pc3e6861d7e)" style="fill: none; stroke: #800080; stroke-width: 1.5; stroke-linecap: square"/>
   </g>
   <g id="line2d_40">
    <path d="M 16.47634 170.6307 
L 225.429531 170.6307 
" clip-path="url(#pc3e6861d7e)" style="fill: none; stroke-dasharray: 5.175,10.5; stroke-dashoffset: 1.5; stroke: #800080; stroke-width: 1.5"/>
   </g>
   <g id="line2d_41">
    <path d="M 54.467829 278.416714 
L 92.459318 254.481947 
L 130.450808 230.54718 
L 168.442297 206.612413 
L 206.433787 182.677646 
L 244.425276 158.742879 
L 282.416765 134.808112 
L 320.408255 110.873345 
L 358.399744 86.938578 
L 396.391233 63.003811 
" clip-path="url(#pc3e6861d7e)" style="fill: none; stroke-dasharray: 4.5,9; stroke-dashoffset: 1.5; stroke: #0000ff; stroke-width: 1.5"/>
   </g>
   <g id="patch_3">
    <path d="M 46.869531 289.949812 
L 46.869531 23.837813 
" style="fill: none; stroke: #000000; stroke-width: 0.8; stroke-linejoin: miter; stroke-linecap: square"/>
   </g>
   <g id="patch_4">
    <path d="M 403.989531 289.949812 
L 403.989531 23.837813 
" style="fill: none; stroke: #000000; stroke-width: 0.8; stroke-linejoin: miter; stroke-linecap: square"/>
   </g>
   <g id="patch_5">
    <path d="M 46.869531 289.949812 
L 403.989531 289.949812 
" style="fill: none; stroke: #000000; stroke-width: 0.8; stroke-linejoin: miter; stroke-linecap: square"/>
   </g>
   <g id="patch_6">
    <path d="M 46.869531 23.837812 
L 403.989531 23.837812 
" style="fill: none; stroke: #000000; stroke-width: 0.8; stroke-linejoin: miter; stroke-linecap: square"/>
   </g>
   <g id="text_26">
    <!-- $\leftarrow$ Guessing the class -->
    <g style="fill: #800080" transform="translate(227.329106 253.939334) scale(0.11 -0.11)">
     <defs>
      <path id="DejaVuSans-2190" d="M 313 1866 
L 313 2147 
L 1541 3375 
L 1916 3000 
L 1188 2272 
L 4997 2272 
L 4997 1741 
L 1188 1741 
L 1916 1013 
L 1541 638 
L 313 1866 
z
" transform="scale(0.015625)"/>
      <path id="DejaVuSerif-47" d="M 4097 3272 
Q 3988 3856 3641 4136 
Q 3294 4416 2675 4416 
Q 1869 4416 1472 3897 
Q 1075 3378 1075 2328 
Q 1075 1300 1484 772 
Q 1894 244 2688 244 
Q 3041 244 3362 331 
Q 3684 419 3975 594 
L 3975 1797 
L 3097 1797 
L 3097 2131 
L 4609 2131 
L 4609 391 
Q 4194 150 3714 29 
Q 3234 -91 2688 -91 
Q 1631 -91 995 570 
Q 359 1231 359 2328 
Q 359 3434 996 4092 
Q 1634 4750 2713 4750 
Q 3113 4750 3539 4658 
Q 3966 4566 4447 4378 
L 4447 3272 
L 4097 3272 
z
" transform="scale(0.015625)"/>
     </defs>
     <use xlink:href="#DejaVuSans-2190" transform="translate(19.482422 0.015625)"/>
     <use xlink:href="#DejaVuSerif-20" transform="translate(122.753906 0.015625)"/>
     <use xlink:href="#DejaVuSerif-47" transform="translate(154.541016 0.015625)"/>
     <use xlink:href="#DejaVuSerif-75" transform="translate(234.423828 0.015625)"/>
     <use xlink:href="#DejaVuSerif-65" transform="translate(298.828125 0.015625)"/>
     <use xlink:href="#DejaVuSerif-73" transform="translate(358.007812 0.015625)"/>
     <use xlink:href="#DejaVuSerif-73" transform="translate(409.326172 0.015625)"/>
     <use xlink:href="#DejaVuSerif-69" transform="translate(460.644531 0.015625)"/>
     <use xlink:href="#DejaVuSerif-6e" transform="translate(492.626953 0.015625)"/>
     <use xlink:href="#DejaVuSerif-67" transform="translate(557.03125 0.015625)"/>
     <use xlink:href="#DejaVuSerif-20" transform="translate(621.044922 0.015625)"/>
     <use xlink:href="#DejaVuSerif-74" transform="translate(652.832031 0.015625)"/>
     <use xlink:href="#DejaVuSerif-68" transform="translate(693.017578 0.015625)"/>
     <use xlink:href="#DejaVuSerif-65" transform="translate(757.421875 0.015625)"/>
     <use xlink:href="#DejaVuSerif-20" transform="translate(816.601562 0.015625)"/>
     <use xlink:href="#DejaVuSerif-63" transform="translate(848.388672 0.015625)"/>
     <use xlink:href="#DejaVuSerif-6c" transform="translate(904.394531 0.015625)"/>
     <use xlink:href="#DejaVuSerif-61" transform="translate(936.376953 0.015625)"/>
     <use xlink:href="#DejaVuSerif-73" transform="translate(995.996094 0.015625)"/>
     <use xlink:href="#DejaVuSerif-73" transform="translate(1047.314453 0.015625)"/>
    </g>
   </g>
   <g id="text_27">
    <!--      with a coin flip -->
    <g style="fill: #800080" transform="translate(227.329106 266.133399) scale(0.11 -0.11)">
     <defs>
      <path id="DejaVuSerif-70" d="M 1313 1825 
L 1313 1497 
Q 1313 897 1542 583 
Q 1772 269 2209 269 
Q 2650 269 2876 622 
Q 3103 975 3103 1663 
Q 3103 2353 2876 2703 
Q 2650 3053 2209 3053 
Q 1772 3053 1542 2737 
Q 1313 2422 1313 1825 
z
M 738 2988 
L 184 2988 
L 184 3322 
L 1313 3322 
L 1313 2803 
Q 1481 3116 1742 3264 
Q 2003 3413 2388 3413 
Q 3000 3413 3387 2928 
Q 3775 2444 3775 1663 
Q 3775 881 3387 395 
Q 3000 -91 2388 -91 
Q 2003 -91 1742 57 
Q 1481 206 1313 519 
L 1313 -997 
L 1856 -997 
L 1856 -1331 
L 184 -1331 
L 184 -997 
L 738 -997 
L 738 2988 
z
" transform="scale(0.015625)"/>
     </defs>
     <use xlink:href="#DejaVuSerif-20"/>
     <use xlink:href="#DejaVuSerif-20" x="31.787109"/>
     <use xlink:href="#DejaVuSerif-20" x="63.574219"/>
     <use xlink:href="#DejaVuSerif-20" x="95.361328"/>
     <use xlink:href="#DejaVuSerif-20" x="127.148438"/>
     <use xlink:href="#DejaVuSerif-77" x="158.935547"/>
     <use xlink:href="#DejaVuSerif-69" x="244.53125"/>
     <use xlink:href="#DejaVuSerif-74" x="276.513672"/>
     <use xlink:href="#DejaVuSerif-68" x="316.699219"/>
     <use xlink:href="#DejaVuSerif-20" x="381.103516"/>
     <use xlink:href="#DejaVuSerif-61" x="412.890625"/>
     <use xlink:href="#DejaVuSerif-20" x="472.509766"/>
     <use xlink:href="#DejaVuSerif-63" x="504.296875"/>
     <use xlink:href="#DejaVuSerif-6f" x="560.302734"/>
     <use xlink:href="#DejaVuSerif-69" x="620.507812"/>
     <use xlink:href="#DejaVuSerif-6e" x="652.490234"/>
     <use xlink:href="#DejaVuSerif-20" x="716.894531"/>
     <use xlink:href="#DejaVuSerif-66" x="748.681641"/>
     <use xlink:href="#DejaVuSerif-6c" x="785.693359"/>
     <use xlink:href="#DejaVuSerif-69" x="817.675781"/>
     <use xlink:href="#DejaVuSerif-70" x="849.658203"/>
    </g>
   </g>
   <g id="text_28">
    <!-- Flora's Classification Accuracy and Execution Cost -->
    <g transform="translate(44.73 17.837812) scale(0.14 -0.14)">
     <defs>
      <path id="DejaVuSerif-27" d="M 1125 4666 
L 1125 2931 
L 628 2931 
L 628 4666 
L 1125 4666 
z
" transform="scale(0.015625)"/>
      <path id="DejaVuSerif-43" d="M 4513 1234 
Q 4306 581 3820 245 
Q 3334 -91 2591 -91 
Q 2134 -91 1743 65 
Q 1353 222 1050 525 
Q 700 875 529 1320 
Q 359 1766 359 2328 
Q 359 3416 987 4083 
Q 1616 4750 2644 4750 
Q 3025 4750 3456 4650 
Q 3888 4550 4384 4347 
L 4384 3272 
L 4031 3272 
Q 3916 3859 3567 4137 
Q 3219 4416 2591 4416 
Q 1844 4416 1459 3886 
Q 1075 3356 1075 2328 
Q 1075 1303 1459 773 
Q 1844 244 2591 244 
Q 3113 244 3450 492 
Q 3788 741 3938 1234 
L 4513 1234 
z
" transform="scale(0.015625)"/>
      <path id="DejaVuSerif-41" d="M 1281 1691 
L 2994 1691 
L 2138 3909 
L 1281 1691 
z
M -38 0 
L -38 331 
L 372 331 
L 2034 4666 
L 2559 4666 
L 4225 331 
L 4684 331 
L 4684 0 
L 2988 0 
L 2988 331 
L 3506 331 
L 3116 1356 
L 1153 1356 
L 763 331 
L 1275 331 
L 1275 0 
L -38 0 
z
" transform="scale(0.015625)"/>
      <path id="DejaVuSerif-45" d="M 353 0 
L 353 331 
L 947 331 
L 947 4331 
L 353 4331 
L 353 4666 
L 4109 4666 
L 4109 3628 
L 3725 3628 
L 3725 4281 
L 1581 4281 
L 1581 2719 
L 3109 2719 
L 3109 3303 
L 3494 3303 
L 3494 1753 
L 3109 1753 
L 3109 2338 
L 1581 2338 
L 1581 384 
L 3775 384 
L 3775 1038 
L 4159 1038 
L 4159 0 
L 353 0 
z
" transform="scale(0.015625)"/>
     </defs>
     <use xlink:href="#DejaVuSerif-46"/>
     <use xlink:href="#DejaVuSerif-6c" x="69.384766"/>
     <use xlink:href="#DejaVuSerif-6f" x="101.367188"/>
     <use xlink:href="#DejaVuSerif-72" x="161.572266"/>
     <use xlink:href="#DejaVuSerif-61" x="209.375"/>
     <use xlink:href="#DejaVuSerif-27" x="268.994141"/>
     <use xlink:href="#DejaVuSerif-73" x="296.484375"/>
     <use xlink:href="#DejaVuSerif-20" x="347.802734"/>
     <use xlink:href="#DejaVuSerif-43" x="379.589844"/>
     <use xlink:href="#DejaVuSerif-6c" x="456.103516"/>
     <use xlink:href="#DejaVuSerif-61" x="488.085938"/>
     <use xlink:href="#DejaVuSerif-73" x="547.705078"/>
     <use xlink:href="#DejaVuSerif-73" x="599.023438"/>
     <use xlink:href="#DejaVuSerif-69" x="650.341797"/>
     <use xlink:href="#DejaVuSerif-66" x="682.324219"/>
     <use xlink:href="#DejaVuSerif-69" x="719.335938"/>
     <use xlink:href="#DejaVuSerif-63" x="751.318359"/>
     <use xlink:href="#DejaVuSerif-61" x="807.324219"/>
     <use xlink:href="#DejaVuSerif-74" x="866.943359"/>
     <use xlink:href="#DejaVuSerif-69" x="907.128906"/>
     <use xlink:href="#DejaVuSerif-6f" x="939.111328"/>
     <use xlink:href="#DejaVuSerif-6e" x="999.316406"/>
     <use xlink:href="#DejaVuSerif-20" x="1063.720703"/>
     <use xlink:href="#DejaVuSerif-41" x="1095.507812"/>
     <use xlink:href="#DejaVuSerif-63" x="1167.724609"/>
     <use xlink:href="#DejaVuSerif-63" x="1223.730469"/>
     <use xlink:href="#DejaVuSerif-75" x="1279.736328"/>
     <use xlink:href="#DejaVuSerif-72" x="1344.140625"/>
     <use xlink:href="#DejaVuSerif-61" x="1391.943359"/>
     <use xlink:href="#DejaVuSerif-63" x="1451.5625"/>
     <use xlink:href="#DejaVuSerif-79" x="1507.568359"/>
     <use xlink:href="#DejaVuSerif-20" x="1564.0625"/>
     <use xlink:href="#DejaVuSerif-61" x="1595.849609"/>
     <use xlink:href="#DejaVuSerif-6e" x="1655.46875"/>
     <use xlink:href="#DejaVuSerif-64" x="1719.873047"/>
     <use xlink:href="#DejaVuSerif-20" x="1783.886719"/>
     <use xlink:href="#DejaVuSerif-45" x="1815.673828"/>
     <use xlink:href="#DejaVuSerif-78" x="1888.671875"/>
     <use xlink:href="#DejaVuSerif-65" x="1945.068359"/>
     <use xlink:href="#DejaVuSerif-63" x="2004.248047"/>
     <use xlink:href="#DejaVuSerif-75" x="2060.253906"/>
     <use xlink:href="#DejaVuSerif-74" x="2124.658203"/>
     <use xlink:href="#DejaVuSerif-69" x="2164.84375"/>
     <use xlink:href="#DejaVuSerif-6f" x="2196.826172"/>
     <use xlink:href="#DejaVuSerif-6e" x="2257.03125"/>
     <use xlink:href="#DejaVuSerif-20" x="2321.435547"/>
     <use xlink:href="#DejaVuSerif-43" x="2353.222656"/>
     <use xlink:href="#DejaVuSerif-6f" x="2429.736328"/>
     <use xlink:href="#DejaVuSerif-73" x="2489.941406"/>
     <use xlink:href="#DejaVuSerif-74" x="2541.259766"/>
    </g>
   </g>
   <g id="legend_1">
    <g id="patch_7">
     <path d="M 53.869531 75.872187 
L 187.924219 75.872187 
Q 189.924219 75.872187 189.924219 73.872187 
L 189.924219 30.837812 
Q 189.924219 28.837812 187.924219 28.837812 
L 53.869531 28.837812 
Q 51.869531 28.837812 51.869531 30.837812 
L 51.869531 73.872187 
Q 51.869531 75.872187 53.869531 75.872187 
z
" style="fill: #ffffff; opacity: 0.8; stroke: #cccccc; stroke-linejoin: miter"/>
    </g>
    <g id="line2d_42">
     <path d="M 55.869531 36.93625 
L 65.869531 36.93625 
L 75.869531 36.93625 
" style="fill: none; stroke: #a9a9a9; stroke-width: 2; stroke-linecap: square"/>
    </g>
    <g id="text_29">
     <!-- random selection -->
     <g transform="translate(83.869531 40.43625) scale(0.1 -0.1)">
      <use xlink:href="#DejaVuSerif-72"/>
      <use xlink:href="#DejaVuSerif-61" x="47.802734"/>
      <use xlink:href="#DejaVuSerif-6e" x="107.421875"/>
      <use xlink:href="#DejaVuSerif-64" x="171.826172"/>
      <use xlink:href="#DejaVuSerif-6f" x="235.839844"/>
      <use xlink:href="#DejaVuSerif-6d" x="296.044922"/>
      <use xlink:href="#DejaVuSerif-20" x="390.869141"/>
      <use xlink:href="#DejaVuSerif-73" x="422.65625"/>
      <use xlink:href="#DejaVuSerif-65" x="473.974609"/>
      <use xlink:href="#DejaVuSerif-6c" x="533.154297"/>
      <use xlink:href="#DejaVuSerif-65" x="565.136719"/>
      <use xlink:href="#DejaVuSerif-63" x="624.316406"/>
      <use xlink:href="#DejaVuSerif-74" x="680.322266"/>
      <use xlink:href="#DejaVuSerif-69" x="720.507812"/>
      <use xlink:href="#DejaVuSerif-6f" x="752.490234"/>
      <use xlink:href="#DejaVuSerif-6e" x="812.695312"/>
     </g>
    </g>
    <g id="line2d_43">
     <path d="M 55.869531 51.614375 
L 65.869531 51.614375 
L 75.869531 51.614375 
" style="fill: none; stroke: #6495ed; stroke-width: 2; stroke-linecap: square"/>
    </g>
    <g id="text_30">
     <!-- Flora with one class -->
     <g transform="translate(83.869531 55.114375) scale(0.1 -0.1)">
      <use xlink:href="#DejaVuSerif-46"/>
      <use xlink:href="#DejaVuSerif-6c" x="69.384766"/>
      <use xlink:href="#DejaVuSerif-6f" x="101.367188"/>
      <use xlink:href="#DejaVuSerif-72" x="161.572266"/>
      <use xlink:href="#DejaVuSerif-61" x="209.375"/>
      <use xlink:href="#DejaVuSerif-20" x="268.994141"/>
      <use xlink:href="#DejaVuSerif-77" x="300.78125"/>
      <use xlink:href="#DejaVuSerif-69" x="386.376953"/>
      <use xlink:href="#DejaVuSerif-74" x="418.359375"/>
      <use xlink:href="#DejaVuSerif-68" x="458.544922"/>
      <use xlink:href="#DejaVuSerif-20" x="522.949219"/>
      <use xlink:href="#DejaVuSerif-6f" x="554.736328"/>
      <use xlink:href="#DejaVuSerif-6e" x="614.941406"/>
      <use xlink:href="#DejaVuSerif-65" x="679.345703"/>
      <use xlink:href="#DejaVuSerif-20" x="738.525391"/>
      <use xlink:href="#DejaVuSerif-63" x="770.3125"/>
      <use xlink:href="#DejaVuSerif-6c" x="826.318359"/>
      <use xlink:href="#DejaVuSerif-61" x="858.300781"/>
      <use xlink:href="#DejaVuSerif-73" x="917.919922"/>
      <use xlink:href="#DejaVuSerif-73" x="969.238281"/>
     </g>
    </g>
    <g id="PathCollection_2">
     <g>
      <use xlink:href="#m1c8ae0dda3" x="65.869531" y="67.1675" style="fill: #0000ff; stroke: #0000ff; stroke-width: 2.5"/>
     </g>
    </g>
    <g id="text_31">
     <!-- Flora -->
     <g transform="translate(83.869531 69.7925) scale(0.1 -0.1)">
      <use xlink:href="#DejaVuSerif-46"/>
      <use xlink:href="#DejaVuSerif-6c" x="69.384766"/>
      <use xlink:href="#DejaVuSerif-6f" x="101.367188"/>
      <use xlink:href="#DejaVuSerif-72" x="161.572266"/>
      <use xlink:href="#DejaVuSerif-61" x="209.375"/>
     </g>
    </g>
   </g>
  </g>
 </g>
 <defs>
  <clipPath id="pc3e6861d7e">
   <rect x="46.869531" y="23.837812" width="357.12" height="266.112"/>
  </clipPath>
 </defs>
</svg>
